<svg width="100" height="101" viewBox="0 0 100 101" fill="none" xmlns="http://www.w3.org/2000/svg">
<path d="M0.0999001 70.1295C1.44855 69.0806 2.74725 67.9817 4.5954 68.9307C6.39361 69.8798 6.74326 71.4782 6.74326 73.3264C6.69331 79.2205 6.79321 85.1146 6.69331 91.0087C6.69331 92.8568 7.29271 93.5062 9.14086 93.4562C15.035 93.3563 20.9291 93.4562 26.8232 93.4063C28.6713 93.4063 30.3197 93.706 31.2188 95.5541C32.1678 97.4023 31.0689 98.701 30.02 100.05C20.5794 100.05 11.1389 99.9997 1.64835 100.1C0.24975 100.1 0 99.7999 0 98.4512C0.14985 89.0107 0.0999001 79.5701 0.0999001 70.1295Z" fill="#111B3E"/>
<path d="M70.0298 100.1C68.9809 98.7513 67.882 97.4526 68.831 95.6044C69.7801 93.8062 71.3785 93.4566 73.2266 93.4566C79.1207 93.5065 85.0148 93.4066 90.9089 93.5065C92.7571 93.5065 93.4064 92.9071 93.3565 91.059C93.2566 85.1649 93.3565 79.2707 93.3065 73.3766C93.3065 71.5285 93.6062 69.8801 95.4544 68.981C97.3025 68.032 98.6012 69.1309 99.9499 70.1798C99.9499 79.6703 99.9 89.1609 99.9999 98.6514C99.9999 99.9001 99.7001 100.2 98.4514 100.2C89.0108 100.05 79.5203 100.1 70.0298 100.1Z" fill="#111B3E"/>
<path d="M0.0997314 1.6983C1.19863 0.34965 2.59723 0 4.29554 0C11.9379 0.04995 19.6302 0 27.2726 0.04995C30.0698 0.04995 31.6682 1.2987 31.6182 3.3966C31.5683 5.39461 29.82 6.79321 27.2226 6.84316C21.5783 6.89311 15.8839 6.84316 10.2396 6.84316C6.74309 6.84316 6.74309 6.84316 6.74309 10.4396C6.74309 15.9341 6.74309 21.4286 6.74309 26.9231C6.74309 28.7712 6.44339 30.4196 4.59524 31.3686C2.74708 32.3177 1.44838 31.2188 0.0997314 30.1698C0.0997314 20.6793 0.0997314 11.1888 0.0997314 1.6983Z" fill="#111B3E"/>
<path d="M99.9999 30.1701C98.6513 31.1691 97.3526 32.318 95.5044 31.3689C93.7062 30.4198 93.3566 28.8214 93.3566 26.9733C93.4065 21.0792 93.3066 15.1851 93.4065 9.29098C93.4065 7.44283 92.8071 6.79348 90.9589 6.84343C85.2147 6.94333 79.5204 6.89338 73.7761 6.84343C72.927 6.84343 72.0778 6.89338 71.3286 6.69358C69.5304 6.19408 68.3316 4.99528 68.5813 3.09718C68.7811 1.24902 69.93 0.100173 71.928 0.100173C75.8241 0.100173 79.7202 0.100173 83.6163 0.100173C87.6622 0.100173 91.7581 0.150123 95.8041 0.0502232C97.5024 0.000273127 98.901 0.399873 99.9999 1.74852C99.9999 11.1891 99.9999 20.6796 99.9999 30.1701Z" fill="#111B3E"/>
<path d="M50.05 75.2745C43.057 75.2745 36.064 75.2745 29.071 75.2745C24.3258 75.2745 20.9791 72.0777 20.9791 67.3324C20.9292 58.4413 20.9292 49.5502 20.9791 40.6091C21.0291 36.1136 24.2758 32.767 28.8213 32.5172C29.1709 32.5172 29.4706 32.4673 29.8203 32.5172C33.4167 33.0167 36.1639 32.4173 37.3128 28.1716C37.9122 25.8739 40.2099 24.9248 42.7074 24.9748C47.4526 25.0247 52.1979 24.9748 56.9431 24.9748C60.4896 24.9748 62.3377 26.1236 63.4866 29.5702C64.2359 31.8679 65.4846 32.8169 67.8323 32.5172C69.081 32.3674 70.3298 32.4173 71.5785 32.5172C75.8243 32.8669 79.071 36.1136 79.121 40.3594C79.2209 49.4503 79.2209 58.4912 79.121 67.5822C79.071 72.0277 75.6744 75.2245 71.2289 75.2245C64.1859 75.3244 57.093 75.2745 50.05 75.2745ZM49.9501 67.0327C57.4426 67.0327 63.037 61.4883 63.037 54.0457C63.037 46.703 57.2428 40.8089 50.0001 40.8589C42.8572 40.9088 36.9132 46.9028 36.8632 54.1456C36.8632 61.1886 42.7074 66.9828 49.9501 67.0327Z" fill="#111B3E"/>
<path d="M50.0001 62.7874C45.105 62.7874 40.9592 58.7914 41.0091 53.9962C41.0091 49.1011 45.2549 44.9053 50.15 45.0052C54.9951 45.0551 59.091 49.2509 58.9911 54.0461C58.9412 58.9412 54.9452 62.7874 50.0001 62.7874Z" fill="#111B3E"/>
</svg>
