<svg width="200" height="165" viewBox="0 0 200 165" fill="none" xmlns="http://www.w3.org/2000/svg">
<g id="Frame" clip-path="url(#clip0_198_1045)">
<g id="Group">
<g id="Group_2">
<path id="Vector" d="M199.348 162.76H0.675195C0.32585 162.76 0.0230844 163.028 -0.00020526 163.365C-0.0234949 163.75 0.279271 164.064 0.651905 164.064H199.348C199.709 164.064 200 163.773 200 163.412C200 163.051 199.709 162.76 199.348 162.76Z" fill="#111B3E"/>
</g>
<g id="Group_3">
<path id="Vector_2" d="M71.7285 27.5858C77.6127 26.9687 81.8825 21.6983 81.2654 15.8141C80.6483 9.92985 75.3779 5.66002 69.4937 6.27714C63.6095 6.89426 59.3396 12.1646 59.9567 18.0489C60.5739 23.9331 65.8442 28.2029 71.7285 27.5858Z" fill="#111B3E"/>
<path id="Vector_3" d="M74.6436 26.55C69.3452 28.7742 63.22 26.2705 60.9958 20.9605C58.7717 15.6621 61.2753 9.53689 66.5854 7.31273C71.8837 5.08856 78.0089 7.5922 80.2331 12.9022C82.4573 18.2006 79.9536 24.3258 74.6436 26.55Z" fill="#111B3E"/>
<path id="Vector_4" d="M77.9471 21.3349C80.3574 17.2984 79.0391 12.0722 75.0026 9.66189C70.9661 7.25155 65.74 8.56982 63.3296 12.6063C60.9193 16.6428 62.2376 21.869 66.2741 24.2793C70.3106 26.6897 75.5367 25.3714 77.9471 21.3349Z" fill="white"/>
<path id="Vector_5" d="M73.7353 24.3841C69.6247 26.1076 64.8852 24.1629 63.1734 20.0639C61.45 15.9533 63.3947 11.2138 67.4937 9.50205C71.6043 7.77862 76.3437 9.7233 78.0555 13.8223C79.779 17.9213 77.8459 22.6607 73.7353 24.3841Z" fill="white"/>
<g id="Group_4">
<path id="Vector_6" d="M64.0114 19.2372L62.6839 19.7961C62.4627 19.8893 62.3579 20.1454 62.451 20.3551C62.5442 20.5763 62.8004 20.6811 63.01 20.588L64.3375 20.029C64.5587 19.9358 64.6635 19.6797 64.5704 19.47C64.4772 19.2488 64.221 19.144 64.0114 19.2372Z" fill="#111B3E"/>
<path id="Vector_7" d="M73.1527 22.975C72.9314 23.0681 72.8266 23.3243 72.9198 23.5339L73.4787 24.8614C73.5719 25.0827 73.8281 25.1875 74.0377 25.0943C74.2589 25.0012 74.3637 24.745 74.2706 24.5354L73.7116 23.2078C73.6185 22.9866 73.3739 22.8934 73.1527 22.975Z" fill="#111B3E"/>
<path id="Vector_8" d="M78.2297 13.2747L76.9022 13.8337C76.6809 13.9269 76.5761 14.183 76.6693 14.3927C76.7624 14.6139 77.0186 14.7187 77.2282 14.6256L78.5557 14.0666C78.777 13.9734 78.8818 13.7173 78.7886 13.5076C78.6955 13.2864 78.4509 13.1816 78.2297 13.2747Z" fill="#111B3E"/>
<path id="Vector_9" d="M67.1903 8.75668C66.969 8.84984 66.8642 9.10603 66.9574 9.31564L67.5163 10.6431C67.6095 10.8644 67.8657 10.9692 68.0753 10.876C68.2965 10.7829 68.4013 10.5267 68.3082 10.3171L67.7492 8.98958C67.6677 8.76833 67.4115 8.66352 67.1903 8.75668Z" fill="#111B3E"/>
</g>
<g id="Group_5">
<path id="Vector_10" d="M70.1835 5.13517L70.2999 3.44667C70.3116 3.30693 70.428 3.20213 70.5678 3.21377L72.5125 3.35351C72.6522 3.36516 72.757 3.48161 72.7454 3.62134L72.6289 5.30984C72.6173 5.44958 72.5008 5.55439 72.3611 5.54274L70.4164 5.403C70.2767 5.39136 70.1719 5.27491 70.1835 5.13517Z" fill="#111B3E"/>
</g>
<g id="Group_6">
<path id="Vector_11" d="M62.6258 8.34911L61.3332 7.24286C61.2284 7.1497 61.0654 7.16134 60.9839 7.26615L59.7263 8.74504C59.6331 8.84984 59.6447 9.01287 59.7495 9.09438L61.0421 10.2006C61.1469 10.2938 61.3099 10.2822 61.4031 10.1774L62.6491 8.7101C62.7423 8.6053 62.7306 8.44227 62.6258 8.34911Z" fill="#111B3E"/>
</g>
<g id="Group_7">
<path id="Vector_12" d="M64.699 5.57753C64.5709 5.62411 64.4312 5.56588 64.373 5.44944L63.9072 4.31989C63.8606 4.19179 63.9188 4.05206 64.0353 3.99383L66.3293 3.02731C66.4574 2.98073 66.5972 3.03896 66.6554 3.1554L67.1212 4.28495C67.1677 4.41305 67.1095 4.55278 66.9931 4.61101L64.699 5.57753Z" fill="#111B3E"/>
<path id="Vector_13" d="M65.3044 5.98527C64.1865 6.06678 63.0919 5.43796 62.6261 4.35499C62.0555 2.99255 62.6959 1.42049 64.0584 0.849896C65.4208 0.279299 66.9929 0.919765 67.5635 2.28221C68.0176 3.37682 67.7032 4.59953 66.8531 5.33316L67.1093 5.93869C68.2738 5.04204 68.7396 3.44669 68.1457 2.02602C67.447 0.349168 65.5024 -0.454325 63.8138 0.25601C62.1253 0.966344 61.3335 2.91103 62.0322 4.59953C62.6261 6.0202 64.0933 6.80041 65.5489 6.60244L65.3044 5.98527Z" fill="#111B3E"/>
<path id="Vector_14" d="M66.399 6.85841C66.6668 6.74196 66.9347 6.6488 67.2025 6.55564L66.5271 4.93701L65.2578 5.47267L65.9332 7.07966C66.0846 6.99815 66.236 6.92828 66.399 6.85841Z" fill="#111B3E"/>
</g>
<g id="Group_8">
<path id="Vector_15" d="M71.3364 16.6171C71.4995 17.013 71.3131 17.4788 70.9172 17.6418C70.5213 17.8048 70.0555 17.6185 69.8925 17.2226C69.7294 16.8267 69.9158 16.3609 70.3117 16.1978C70.7076 16.0232 71.1734 16.2095 71.3364 16.6171Z" fill="#111B3E"/>
<path id="Vector_16" d="M71.4528 10.4917L70.8939 16.9429C70.8822 17.106 70.7308 17.2224 70.5794 17.2108C70.4164 17.1991 70.3 17.0477 70.3116 16.8964C70.3 16.8731 70.2534 17.1642 71.4528 10.4917Z" fill="#111B3E"/>
<path id="Vector_17" d="M76.2972 20.1103L70.5097 17.1991C70.3583 17.1292 70.3001 16.9429 70.3816 16.8032C70.4515 16.6518 70.6378 16.5936 70.7776 16.6751C70.7892 16.6867 70.5447 16.5354 76.2972 20.1103Z" fill="#111B3E"/>
<path id="Vector_18" d="M70.9173 16.7916C70.9872 16.9547 70.9057 17.141 70.7427 17.2108C70.5796 17.2807 70.3933 17.1992 70.3235 17.0362C70.2536 16.8731 70.3351 16.6868 70.4981 16.617C70.6495 16.5587 70.8475 16.6286 70.9173 16.7916Z" fill="#111B3E"/>
</g>
</g>
<g id="Group_9">
<path id="Vector_19" d="M156.448 69.4727C156.367 69.3795 156.25 69.3446 156.134 69.3795C155.563 69.5309 154.538 69.3096 154.038 69.1233L153.49 66.3868C153.886 66.0258 154.748 65.4203 155.33 65.3387C155.447 65.3271 155.551 65.2456 155.586 65.1291L156.285 63.0564C156.32 62.9399 156.297 62.8235 156.203 62.7303C155.784 62.3111 155.47 61.3096 155.377 60.7856L157.461 58.9457C157.973 59.1088 158.928 59.5513 159.289 60.0171C159.359 60.1102 159.487 60.1568 159.604 60.1335L161.746 59.7026C161.863 59.6794 161.956 59.5862 161.991 59.4698C162.142 58.8992 162.853 58.1306 163.26 57.7812L165.904 58.6663C166.02 59.1903 166.113 60.2383 165.892 60.774C165.845 60.8788 165.869 61.0069 165.95 61.1L167.394 62.7419C167.476 62.8351 167.592 62.87 167.709 62.8351C168.279 62.6837 169.304 62.905 169.805 63.0913L170.352 65.8278C169.956 66.1888 169.094 66.7943 168.512 66.8759C168.396 66.8875 168.291 66.969 168.256 67.0855L167.557 69.1583C167.522 69.2747 167.546 69.3911 167.639 69.4843C168.058 69.9035 168.372 70.905 168.465 71.429L166.381 73.2689C165.869 73.1058 164.914 72.6633 164.553 72.1975C164.483 72.1044 164.355 72.0578 164.238 72.0811L162.096 72.512C161.979 72.5353 161.886 72.6284 161.851 72.7449C161.7 73.3155 160.99 74.084 160.582 74.4334L157.939 73.5483C157.822 73.0243 157.729 71.9763 157.95 71.4406C157.997 71.3358 157.974 71.2077 157.892 71.1146L156.448 69.4727ZM162.457 68.7973C163.947 68.4945 164.902 67.0505 164.599 65.56C164.297 64.0695 162.853 63.1146 161.362 63.4173C159.872 63.7201 158.917 65.1641 159.22 66.6546C159.522 68.1452 160.978 69.1 162.457 68.7973ZM162.806 70.5207C165.24 70.0316 166.824 67.6561 166.334 65.2107C165.845 62.7769 163.47 61.1932 161.024 61.6823C158.591 62.1714 157.007 64.5469 157.496 66.9923C157.997 69.4377 160.372 71.0214 162.806 70.5207Z" fill="#EE3F4C"/>
<path id="Vector_20" d="M174.195 79.2428C174.218 79.1496 174.288 79.0797 174.381 79.0681L176.081 78.7304C176.174 78.7071 176.267 78.742 176.326 78.8236C176.605 79.1962 177.362 79.5339 177.77 79.662L179.423 78.2064C179.342 77.7872 179.097 76.9953 178.771 76.6693C178.701 76.5994 178.678 76.5062 178.713 76.4131L179.26 74.7711C179.295 74.678 179.365 74.6198 179.458 74.6081C179.912 74.5499 180.599 74.0608 180.914 73.7813L180.471 71.6154C180.075 71.4757 179.26 71.2893 178.806 71.4174C178.713 71.4407 178.62 71.4174 178.55 71.3476L177.397 70.0434C177.339 69.9735 177.315 69.8687 177.35 69.7872C177.525 69.3563 177.444 68.5295 177.362 68.1103L175.266 67.4116C174.94 67.6911 174.381 68.2966 174.264 68.7508C174.241 68.8439 174.171 68.9138 174.078 68.9254L172.378 69.2631C172.285 69.2864 172.192 69.2515 172.133 69.17C171.854 68.7974 171.097 68.4597 170.69 68.3316L169.036 69.7872C169.117 70.2064 169.362 70.9982 169.688 71.3243C169.758 71.3942 169.781 71.4873 169.746 71.5805L169.199 73.2224C169.164 73.3155 169.094 73.3738 169.001 73.3854C168.547 73.4436 167.86 73.9327 167.545 74.2122L167.988 76.3781C168.384 76.5179 169.199 76.7042 169.653 76.5761C169.746 76.5528 169.839 76.5761 169.909 76.646L171.062 77.9502C171.12 78.0201 171.144 78.1249 171.109 78.2064C170.934 78.6372 171.016 79.464 171.097 79.8832L173.193 80.5819C173.508 80.3141 174.078 79.6969 174.195 79.2428ZM174.777 76.6343C173.31 76.9254 171.889 75.9822 171.586 74.515C171.295 73.0477 172.238 71.627 173.706 71.3243C175.173 71.0332 176.593 71.9764 176.896 73.4436C177.187 74.9225 176.244 76.3432 174.777 76.6343Z" fill="#EE3F4C"/>
</g>
<path id="Vector_21" d="M47.4756 49.4902L45.5891 48.7798L43.9355 49.9327C43.7492 50.0608 43.493 49.921 43.5047 49.6881L43.5978 47.6736L41.9909 46.4509C41.8045 46.3111 41.8628 46.02 42.084 45.9618L44.0287 45.4261L44.6925 43.5164C44.7623 43.2951 45.0651 43.2602 45.1815 43.4582L46.2878 45.1467L48.3024 45.1932C48.5353 45.1932 48.6517 45.4611 48.512 45.6474L47.2543 47.2194L47.8366 49.1525C47.9064 49.3737 47.6968 49.5717 47.4756 49.4902Z" fill="#111B3E"/>
<path id="Vector_22" d="M50.3752 37.4147L49.3388 34.6665L46.7187 35.4467L45.5891 32.78L42.9807 33.2225L41.8046 31.3594L40.8613 31.9533L42.4334 34.4453L44.9021 34.026L46.0782 36.7975L48.6634 36.029L49.595 38.5326L50.3752 37.4147Z" fill="#111B3E"/>
<path id="Vector_23" d="M160.78 50.1194L158.206 48.6987L156.727 51.0161L154.119 49.7351L152.442 51.773L150.334 51.1325L150.02 52.1922L152.826 53.0539L154.422 51.1209L157.135 52.46L158.579 50.1776L160.92 51.4586L160.78 50.1194Z" fill="#111B3E"/>
<path id="Vector_24" d="M92.7625 15.3595L91.6562 18.096L94.125 19.2838L93.1584 22.0203L95.371 23.4526L94.975 25.6186L96.0813 25.8165L96.5937 22.917L94.4976 21.5662L95.5107 18.7132L93.0769 17.5487L94.0784 15.0684L92.7625 15.3595Z" fill="#111B3E"/>
<path id="Vector_25" d="M157.822 85.6825L157.287 84.6112L156.064 84.6461L155.54 83.4117L154.247 83.8542L153.595 82.4802L152.361 82.7363L151.511 81.5136L151.977 81.1992L152.605 82.1075L153.91 81.8397L154.538 83.1555L155.854 82.7014L156.425 84.0755L157.624 84.0406L158.125 85.0304L158.905 84.8324L159.045 85.3797L157.822 85.6825Z" fill="#111B3E"/>
<path id="Vector_26" d="M135.243 36.1569L134.672 34.4568L137.304 33.2341L136.769 30.6489L138.585 29.4146L137.968 28.4946L135.534 30.1482L136.035 32.5936L133.298 33.8745L134.148 36.4248L135.243 36.1569Z" fill="#FE5F6B"/>
<g id="Group_10">
<path id="Vector_27" d="M164.332 23.6274C167.231 28.0641 163.284 34.2242 158.113 33.3042C157.182 33.1412 156.215 33.3508 155.389 33.8632L152.536 35.6216C151.744 36.1106 150.754 35.901 150.265 35.1325L149.17 33.4556C148.67 32.6987 148.833 31.639 149.543 31.0335C152.128 28.821 153.223 28.1921 153.572 26.3406C154.585 20.9141 161.432 19.1907 164.332 23.6274Z" fill="#111B3E"/>
<g id="Group_11">
<path id="Vector_28" d="M157.52 26.0726C157.461 25.8281 157.403 25.5603 157.38 25.2924C157.252 23.7437 158.451 23.208 159.08 23.6039C159.488 23.8601 159.651 24.454 159.418 25.013C159.208 25.5137 158.754 25.8863 158.3 26.2823C158.544 27.144 158.929 27.9358 159.453 28.6462C160.862 27.7961 161.875 28.2619 161.945 29.0304C161.991 29.5195 161.665 30.0319 161.188 30.2415C160.897 30.3696 160.163 30.5326 159.29 29.5661C156.902 31.243 153.793 33.7349 153.782 33.7466L153.386 33.1993C153.397 33.1876 156.495 30.7189 158.87 29.0421C158.381 28.3667 157.997 27.6098 157.729 26.7946C155.016 29.1702 152.617 31.045 152.536 31.1149L152.14 30.5676C152.303 30.4162 154.62 28.6112 157.52 26.0726ZM158.661 24.1745C158.451 24.093 157.892 24.3259 158.113 25.537C158.742 24.9897 158.94 24.7451 158.661 24.1745ZM159.883 29.1818C160.233 29.5428 160.757 29.8689 161.106 29.4846C161.56 28.9722 160.908 28.5996 159.883 29.1818Z" fill="white"/>
</g>
<path id="Vector_29" d="M155.47 33.8283C155.447 33.84 155.424 33.8516 155.4 33.8749L152.547 35.6333C151.755 36.1224 150.766 35.9128 150.277 35.1442L149.182 33.4674C148.681 32.7104 148.844 31.6508 149.555 31.0452C150.707 30.0554 151.558 29.3917 152.186 28.7861L155.47 33.8283Z" fill="#FE5F6B"/>
</g>
<g id="Group_12">
<g id="Group_13">
<g id="Group_14">
<path id="Vector_30" d="M19.1557 125.706C19.1557 125.706 19.0626 125.252 19.0393 125.1C19.016 124.926 18.9927 124.378 18.9927 124.378C18.9927 124.378 18.9927 122.48 19.1324 122.492C19.2722 122.504 19.4585 122.83 19.4934 122.946C19.54 123.063 19.5982 123.191 19.6331 123.319C19.6797 123.435 19.7962 123.505 19.9476 123.459C20.0989 123.412 20.0291 122.911 19.9825 122.748C19.8078 122.224 19.0509 120.908 18.981 120.757C18.8995 120.582 19.5051 117.298 19.6215 116.146C19.866 114.282 20.2154 112.373 20.2503 112.175L23.5807 104.815L21.3566 102.544C21.3566 102.544 17.5487 110.649 17.409 111.08C17.3391 111.278 17.0946 115.657 17.1062 115.657C17.1179 117.822 17.1412 119.721 17.1412 120.093C17.1412 120.093 16.8267 121.188 16.5822 121.863C16.3377 122.55 16.3959 123.272 16.3609 123.47C16.3609 123.505 16.1863 124.192 16.3027 125.054C16.4075 125.799 16.6521 125.042 16.6521 125.042C16.6521 125.042 16.7103 123.633 16.8267 123.657C16.9083 123.68 16.8267 124.448 16.9315 125.263C16.9548 125.473 16.9898 125.683 17.0131 125.881C17.0829 126.381 17.409 126.486 17.4206 125.939C17.4206 125.753 17.4206 125.438 17.3973 125.205C17.3624 124.961 17.409 124.728 17.409 124.518C17.409 124.099 17.409 123.796 17.4323 123.808C17.4556 123.82 17.5138 123.738 17.5487 123.959C17.5953 124.227 17.5487 124.821 17.6419 125.217C17.7001 125.438 17.77 125.904 17.77 125.904C17.77 125.904 17.9912 126.649 18.0262 126.649C18.2707 126.638 18.2707 126.055 18.1659 125.764C18.1892 125.543 18.096 125.054 18.096 125.054C18.096 125.054 18.1193 124.006 18.2707 124.006C18.3871 124.006 18.818 126.509 19.0625 126.475C19.2489 126.463 19.1557 125.706 19.1557 125.706Z" fill="#F7A491"/>
</g>
<path id="Vector_31" d="M22.218 109.077C22.218 109.077 20.8323 108.844 20.1103 108.565C19.1322 108.204 18.4917 107.878 18.4917 107.878C18.4917 107.878 19.563 103.29 20.9022 100.506C21.4495 99.3535 22.0201 98.7946 22.7886 98.6665C22.7886 98.6665 24.4306 99.7495 24.3723 102.346C24.3491 102.952 22.218 109.077 22.218 109.077Z" fill="#EE3F4C"/>
<g id="Group_15">
<path id="Vector_32" d="M26.4688 124.495L28.2621 140.961C28.2621 140.961 27.3887 144.443 27.4935 145.433C27.5983 146.422 29.4382 159.395 29.4382 159.395L29.3567 160.128V162.283H36.1805C36.1805 162.283 34.7366 161.619 32.6987 160.291C32.5474 160.198 32.198 159.884 32.1165 159.267C31.5808 155.272 32.6405 141.927 32.6405 141.927L33.4789 124.565L26.4688 124.495Z" fill="#F7A491"/>
<path id="Vector_33" d="M20.9725 127.954C20.5882 128.058 19.9943 142.207 19.6682 142.836C17.642 146.818 17.1646 158.906 17.1646 158.906L16.5707 160.629L15.9419 162.737C15.9419 162.737 17.9681 163.296 19.0278 162.69L18.9113 160.606L18.8065 158.696L23.9186 143.628L26.7134 128.256L20.9725 127.954Z" fill="#F7A491"/>
<path id="Vector_34" d="M31.138 100.53C30.3112 99.3655 26.9109 96.0118 26.5383 96.0235C25.432 96.0468 21.8222 96.0468 21.1118 96.4194V97.2112C21.1351 100.751 21.5776 104.268 22.4743 107.692C23.0914 110.079 23.6853 112.629 23.6038 113.537L23.6155 113.549C25.7115 115.633 29.007 115.459 30.9168 113.188C30.9168 113.188 30.9051 110.649 31.2079 108.344C31.6853 104.711 33.1875 103.418 31.138 100.53Z" fill="#FE5F6B"/>
<path id="Vector_35" d="M25.4322 92.4253C25.4322 92.4253 25.5254 94.7892 25.3274 95.6742C25.1178 96.5708 24.85 96.6407 26.62 96.9085C27.3187 97.0133 27.9825 97.1764 27.9825 97.1764C27.9825 97.1764 27.7961 95.8605 27.7729 95.3132C27.7263 94.4049 27.9825 91.5752 27.9825 91.5752L25.4322 92.4253Z" fill="#F7A491"/>
<path id="Vector_36" d="M26.7715 93.5897C27.1325 93.7877 27.4702 93.9158 27.7846 93.9624C27.8428 92.8445 27.9592 91.5752 27.9592 91.5752L25.5371 92.3787C25.8282 92.8678 26.2242 93.287 26.7715 93.5897Z" fill="#F47458"/>
<path id="Vector_37" d="M25.9912 85.811C25.9912 85.811 24.9781 86.172 24.4192 87.2782C23.8602 88.3845 23.6506 91.517 25.8515 92.7397C26.9345 93.3452 28.1921 93.4616 28.786 92.926C29.3915 92.3787 29.31 91.1793 29.2518 90.1778C29.1353 88.1865 28.6928 85.1822 25.9912 85.811Z" fill="#F7A491"/>
<path id="Vector_38" d="M24.3725 89.7352C24.5006 90.2592 24.3259 90.7599 23.9998 90.8647C23.6738 90.9695 23.3012 90.6202 23.1731 90.0962C23.045 89.5721 23.2196 89.0714 23.5457 88.9666C23.8718 88.8734 24.2444 89.2111 24.3725 89.7352Z" fill="#F7A491"/>
<path id="Vector_39" d="M18.923 160.605C17.9914 161.036 16.9899 160.769 16.594 160.629L15.9419 162.748C15.9419 162.748 17.9797 163.354 19.0394 162.748L18.923 160.605Z" fill="#3C3C3C"/>
<path id="Vector_40" d="M29.2866 162.807H36.3899C36.6578 162.783 36.716 162.562 36.6228 162.422C36.4365 162.143 35.6097 161.933 34.6782 161.491C33.0479 161.665 29.6243 160.513 29.3565 160.117C29.2051 160.897 29.1352 162.772 29.2866 162.807Z" fill="#3C3C3C"/>
<path id="Vector_41" d="M43.5402 105.898C43.6799 105.712 44.134 104.769 44.134 104.769C44.134 104.769 44.6115 103.162 44.5067 103.185C44.4485 103.196 44.2505 103.429 44.0176 103.907C43.8779 104.198 43.7148 104.722 43.5751 104.978C43.3189 105.432 43.0278 105.619 43.0976 105.444C43.1442 105.316 43.3305 105.211 43.4819 104.943C43.8662 104.291 44.1923 103.22 44.0525 103.231C43.9244 103.255 43.5518 103.988 43.1559 104.559C42.9812 104.815 42.4805 105.13 42.1544 105.327C42.1544 105.188 42.201 105.048 42.2243 104.978C42.2592 104.85 42.8298 104.105 42.6086 104.012C42.3873 103.918 41.0482 105.537 41.0482 105.537L40.5008 106.48L40.4543 106.515C40.4543 106.515 33.7585 109.135 33.5372 109.065C33.0132 108.902 31.2083 103.686 31.2083 103.686L27.4586 104.361C27.4004 104.326 31.3946 112.128 32.1399 112.501C32.792 112.838 39.7556 109.205 41.0598 108.437C42.8648 107.738 43.5634 106.923 43.8546 106.492C44.0059 106.271 44.6115 105.281 44.6115 105.281C44.6115 105.281 44.7396 103.918 44.6464 103.907C44.3204 103.872 44.2272 105.153 44.2272 105.153C44.2272 105.153 43.7847 105.758 43.7032 105.84C43.5052 106.049 43.5402 105.898 43.5402 105.898Z" fill="#F8A492"/>
<path id="Vector_42" d="M25.0363 99.144C24.524 101.31 27.2488 106.143 27.2488 106.143C27.2488 106.143 31.1382 104.256 31.8136 103.441C31.8136 103.441 29.1353 99.0159 28.9723 98.7248C28.6113 98.096 27.3536 96.8151 26.5036 97.048C25.9679 97.211 25.0363 99.144 25.0363 99.144Z" fill="#EE3F4C"/>
<path id="Vector_43" d="M25.6535 93.7992C25.9446 91.8079 29.2401 87.7555 27.9708 86.067C26.946 84.6929 25.1411 85.1121 23.9999 85.4964C18.8063 87.2781 19.1091 93.8108 17.4671 94.8239C14.4977 96.6755 12.6695 97.8283 12.4599 101.997C12.2037 106.946 16.4075 109.461 21.4497 108.25C24.1629 107.598 24.8849 106.713 25.9679 104.151C26.4569 102.999 27.4468 99.3887 27.1789 97.6303C26.9344 96.0699 25.4206 95.4062 25.6535 93.7992Z" fill="#3C3C3C"/>
<path id="Vector_44" d="M27.6214 90.1543C27.6214 90.7482 27.4118 91.2257 27.1439 91.2257C26.8761 91.2257 26.6665 90.7482 26.6665 90.1543C26.6665 89.5604 26.8761 89.083 27.1439 89.083C27.4118 89.083 27.6214 89.5721 27.6214 90.1543Z" fill="#F7A491"/>
<path id="Vector_45" d="M34.1307 135.208L34.3753 125.438C34.4218 122.679 33.8745 119.942 32.7799 117.427L30.9284 113.188C30.1831 113.433 29.4728 113.642 28.6926 113.735C26.9808 113.933 25.3039 113.735 23.6038 113.537C23.6038 113.607 23.5921 113.665 23.5805 113.712C23.2777 115.156 21.5543 118.358 20.8323 122.737C20.0172 127.709 19.7028 135.15 19.8076 135.744C27.6678 136.093 29.531 136.373 34.1307 135.208Z" fill="#111B3E"/>
</g>
</g>
</g>
<g id="Group_16">
<g id="Group_17">
<path id="Vector_46" d="M131.866 86.2998L137.77 92.2037C137.77 92.2037 149.019 96.6055 150.277 99.3071C151.534 102.009 149.147 101.881 146.504 101.508C143.86 101.135 136.384 96.4774 136.384 96.4774L129.537 88.5589L131.866 86.2998Z" fill="#EE3F4C"/>
<path id="Vector_47" d="M149.159 98.131L147.691 97.6069L144.862 98.9228C144.862 98.9228 143.394 99.9126 142.696 102.37C141.985 104.827 142.696 119.488 143.872 121.84C145.06 124.204 149.159 98.131 149.159 98.131Z" fill="#E9FAFF"/>
<path id="Vector_48" d="M158.439 156.926C158.439 156.926 159.476 157.589 159.569 157.904C159.651 158.207 160.419 161.549 160.128 161.933C159.848 162.317 158.8 162.131 159.208 162.41C159.511 162.62 161.49 162.783 162.748 162.445C163.121 162.34 162.946 159.231 163.004 158.754C163.086 158.067 163.563 156.506 163.272 156.099C163.132 155.901 162.317 155.552 161.595 155.272C160.827 154.969 159.977 154.131 159.977 154.131L158.439 156.926Z" fill="#F7A491"/>
<path id="Vector_49" d="M161.525 155.237C161.525 155.237 160.908 161.153 160.198 161.584C160.011 161.7 158.998 161.782 158.905 162.271C158.905 162.282 158.882 162.772 159.185 162.783L163.016 162.772C163.016 162.772 163.051 159.86 163.027 158.731C163.027 158.731 163.551 155.82 163.388 155.61C163.202 155.377 161.525 155.237 161.525 155.237Z" fill="#3C3C3C"/>
<path id="Vector_50" d="M173.426 156.926C173.426 156.926 174.463 157.589 174.556 157.904C174.637 158.207 175.406 161.549 175.115 161.933C174.824 162.317 173.787 162.131 174.195 162.41C174.498 162.62 176.477 162.783 177.735 162.445C178.107 162.34 177.933 159.231 177.991 158.754C178.073 158.067 178.55 156.506 178.259 156.099C178.119 155.901 177.304 155.552 176.582 155.272C175.813 154.969 174.963 154.131 174.963 154.131L173.426 156.926Z" fill="#F7A491"/>
<path id="Vector_51" d="M154.62 118.521C154.62 118.521 158.125 125.473 158.836 127.348L164.169 140.891L175.942 154.736C175.942 154.736 175.08 156.961 173.776 157.554C173.776 157.554 159.581 146.096 158.416 144.291C156.635 141.543 148.53 124.681 148.53 124.681L147.028 121.444L154.62 118.521Z" fill="#111B3E"/>
<path id="Vector_52" d="M146.143 118.44L146.201 124.367C146.201 124.367 143.662 143.744 144.163 144.897C145.362 147.703 158.533 157.217 158.533 157.217L160.326 154.131L150.87 143.569L154.457 133.287C155.459 130.9 157.59 126.288 157.543 123.692C157.496 121.467 153.095 116.332 153.095 116.332L146.143 118.44Z" fill="#314382"/>
<path id="Vector_53" d="M151.523 127.208C155.016 126.416 157.834 125.182 158.125 124.215C158.253 123.773 156.309 119.348 154.876 113.444C154.411 111.511 154.492 109.706 153.747 102.94C153.584 101.508 152.99 98.5034 150.777 97.7232C149.997 97.4553 149.566 97.4903 149.566 97.4903C149.543 97.4903 146.737 97.5136 145.456 98.2239C145.141 98.6547 143.954 101.007 143.639 107.423C143.499 110.218 142.94 119.208 143.057 120.675C143.069 120.896 143.092 121.106 143.127 121.304C143.627 125.17 147.715 128.07 151.523 127.208Z" fill="#EE3F4C"/>
<path id="Vector_54" d="M145.362 102.603C146.795 102.44 150.37 97.7585 150.37 97.7585L150.358 97.7469L148.145 94.2534C148.145 94.2534 144.896 94.8473 145.525 95.8371C146.166 96.8269 146.515 99.2025 146.515 99.2025C146.503 99.2258 146.492 99.2607 146.469 99.3073C146.259 99.7847 145.537 101.217 145.362 102.603Z" fill="#F7A491"/>
<path id="Vector_55" d="M145.537 95.8371C144.897 94.8473 148.157 94.2534 148.157 94.2534L148.343 94.5445C148.343 94.7891 148.32 95.0103 148.25 95.2083C147.901 96.1981 147.051 97.0715 146.177 97.4907C146.014 96.8851 145.793 96.2447 145.537 95.8371Z" fill="#FB957E"/>
<g id="Group_18">
<path id="Vector_56" d="M146.317 88.7336C146.387 88.6637 148.856 92.7278 148.262 94.393C147.668 96.0582 145.677 97.3974 144.501 96.8035C143.196 96.1397 141.217 91.4934 142.405 89.5255C143.592 87.5342 146.317 88.7336 146.317 88.7336Z" fill="#F7A491"/>
<path id="Vector_57" d="M142.742 86.9051C144.198 86.5907 146.783 87.0216 148.25 88.0463C150.044 89.304 150.102 91.5514 149.299 93.0187C148.495 94.4859 148.972 95.5573 148.972 95.5573C148.972 95.5573 146.446 95.3942 145.945 93.6824C145.735 92.9605 145.991 92.4714 145.514 92.0638C145.141 91.7494 144.827 90.8411 144.454 90.1075C144.454 90.1075 142.824 89.2458 142.207 89.9561C141.997 90.2123 140.891 87.3127 142.742 86.9051Z" fill="#3C3C3C"/>
<path id="Vector_58" d="M145.258 92.39C145.479 92.914 145.91 93.24 146.213 93.1119C146.515 92.9838 146.597 92.4482 146.376 91.9242C146.154 91.4001 145.723 91.0741 145.421 91.2022C145.106 91.3303 145.036 91.8543 145.258 92.39Z" fill="#F7A491"/>
</g>
<path id="Vector_59" d="M176.524 155.249C176.524 155.249 175.895 161.153 175.173 161.584C174.987 161.7 173.974 161.782 173.881 162.271C173.881 162.283 173.846 162.783 174.16 162.772L177.991 162.76C177.991 162.76 178.038 159.849 178.014 158.719C178.014 158.719 178.538 155.808 178.375 155.598C178.201 155.377 176.524 155.249 176.524 155.249Z" fill="#3C3C3C"/>
</g>
<g id="Group_19">
<g id="Group_20">
<path id="Vector_60" d="M91.9126 127.965C88.8733 121.607 88.0348 112.105 91.3536 104.582C96.9431 91.8661 112.314 86.6841 111.185 72.2795C110.905 68.6463 109.287 65.7351 106.911 63.8486C100.658 58.9112 90.5851 61.5196 83.4002 64.9782C78.8121 67.179 74.5501 70.3115 70.6142 74.3639L68.5996 48.9083C77.2284 42.7831 87.6622 39.5808 98.0843 38.7656C119.429 37.0888 135.918 45.1004 137.595 66.4571C139.121 85.9389 125.962 94.5677 117.135 104.303C112.233 109.706 111.127 113.875 111.511 118.696C111.709 121.188 112.64 124.262 114.143 126.23L91.9126 127.965ZM107.237 162.76C86.4861 164.39 84.0756 136.512 105.048 134.859C125.694 133.24 127.918 161.141 107.237 162.76Z" fill="#111B3E"/>
</g>
</g>
<path id="Vector_61" d="M128.699 87.5924C128.664 87.4177 128.803 87.5575 128.536 86.1834C128.454 85.7874 128.21 85.3682 128.023 85.147C127.918 85.0305 127.697 84.8209 127.557 84.7394C127.325 84.5997 127.138 84.8326 127.185 84.9607C127.231 85.0888 127.476 85.5429 127.523 85.671C127.569 85.7991 127.592 86.1251 127.488 86.23C127.383 86.3348 125.659 84.3668 125.555 84.1921C125.461 84.0407 125.263 83.4003 125.263 83.4003C125.263 83.4003 125.112 82.9345 124.926 83.0509C124.809 83.1324 124.67 83.5167 125.019 84.2736C125.322 84.9374 125.741 85.4614 125.694 85.4963C125.566 85.6011 124.821 84.7045 124.821 84.7045C124.821 84.7045 124.565 84.2037 124.378 84.0291C124.262 83.703 124.064 83.2838 123.854 83.4468C123.819 83.4818 123.959 84.1805 123.959 84.1805C123.959 84.1805 124.215 84.6463 124.332 84.8792C124.53 85.2867 124.972 85.7758 125.124 86.0436C125.252 86.2649 125.124 86.2067 125.112 86.2416C125.1 86.2649 124.914 86.0203 124.623 85.6594C124.472 85.473 124.274 85.31 124.134 85.0655C124.006 84.8442 123.785 84.5647 123.645 84.4017C123.261 83.9359 123.051 84.2503 123.342 84.7394C123.458 84.9257 123.575 85.1237 123.703 85.3333C124.192 86.1251 124.798 86.7423 124.739 86.8122C124.658 86.9054 123.622 85.7176 123.622 85.7176C123.622 85.7176 122.888 85.2285 123.33 85.9505C123.831 86.7889 124.378 87.3129 124.413 87.3362C124.588 87.4876 125.042 88.1979 125.718 88.6171C126.393 89.048 127.488 89.7001 127.488 89.7001C127.616 89.8515 127.93 90.3406 128.373 91.0393L130.015 89.0713C129.432 88.4658 128.722 87.7088 128.699 87.5924Z" fill="#F8A492"/>
<path id="Vector_62" d="M127.406 90.3639L129.665 88.3843L137.432 96.0582C137.432 96.0582 149.462 97.1179 149.497 97.1179L149.974 97.2693C154.341 98.7715 152.536 102.335 151.697 102.894C149.741 104.175 138.865 103.406 135.371 101.252C132.518 99.4585 127.406 90.3639 127.406 90.3639Z" fill="#FE5F6B"/>
</g>
<g id="Group_21">
<path id="Vector_63" d="M46.416 101.368C46.4975 101.682 46.5558 101.787 46.6606 102.008C47.3709 103.394 49.0245 105.362 49.0245 105.362L50.3054 102.3C50.3054 102.3 50.0958 101.333 49.7348 99.959C48.5004 100.285 47.3243 100.483 46.416 101.368Z" fill="#F8A492"/>
<path id="Vector_64" d="M53.7409 98.7011C53.7409 98.7011 46.6259 101.973 46.393 101.903C46.2416 101.869 43.4701 96.9078 43.4468 92.2615C43.4352 90.1072 45.5196 87.5221 47.8602 88.0345C49.0363 88.2907 49.0131 88.64 50.7598 91.3416C52.4832 94.0432 53.7409 98.7011 53.7409 98.7011Z" fill="#EE3F4C"/>
<path id="Vector_65" d="M59.8075 157.345C59.8075 157.345 59.6328 160.326 59.6328 160.337C59.5746 160.722 59.3301 161.653 59.3301 161.991C59.3301 163.284 65.0826 160.896 63.79 160.314C63.6736 160.268 63.0564 159.872 63.0215 159.429C62.9633 158.754 62.8119 157.38 62.8119 157.38L59.8075 157.345Z" fill="#F7A491"/>
<path id="Vector_66" d="M63.79 160.302C63.79 160.302 62.4392 160.698 61.7521 160.791C61.0651 160.885 60.1452 160.058 59.6561 160.279C59.1204 160.524 59.1437 162.759 59.1437 162.759C59.1437 162.759 66.3868 163.388 68.4246 162.736C69.2165 162.48 66.5498 161.222 63.79 160.302Z" fill="#3C3C3C"/>
<path id="Vector_67" d="M48.0346 157.345C48.0346 157.345 47.8599 160.326 47.8599 160.337C47.8017 160.722 47.5571 161.653 47.5571 161.991C47.5571 163.284 53.3097 160.896 52.0171 160.314C51.9007 160.268 51.1088 159.581 51.0739 159.138C51.0156 158.463 51.0506 157.38 51.0506 157.38L48.0346 157.345Z" fill="#F7A491"/>
<path id="Vector_68" d="M52.0171 160.302C52.0171 160.302 50.6663 160.698 49.9792 160.791C49.2922 160.885 48.3723 160.058 47.8832 160.279C47.3475 160.524 47.3242 162.759 47.3242 162.759C47.3242 162.759 54.6022 163.505 56.6517 162.736C57.4319 162.445 54.7769 161.222 52.0171 160.302Z" fill="#3C3C3C"/>
<g id="Group_22">
<path id="Vector_69" d="M49.793 103.01L54.8585 95.4288C54.8818 95.359 54.9283 95.2309 54.9982 95.0213C55.2544 94.2644 55.7901 92.704 56.2442 91.1435V91.1319C56.3839 90.5846 56.6984 89.6414 57.0011 88.7214C57.3272 87.6967 57.7464 86.439 57.758 86.2178C57.7464 86.1829 57.7231 86.113 57.6882 86.0315C57.5018 85.5191 57.2457 84.2847 57.1641 83.7607C57.1059 83.423 57.0477 82.5962 57.432 82.5962C58.0259 82.5962 57.7464 83.423 58.0142 83.9354C58.119 83.586 58.317 82.9106 58.4218 82.2236L58.5266 80.6166C58.5499 80.5002 58.4218 79.6035 58.841 79.6035H58.8643C59.2369 79.6385 59.2253 80.5817 59.3883 82.177C59.4349 81.9907 59.4815 81.7695 59.528 81.5715C59.528 81.4667 59.5979 80.9776 59.6561 80.7331C59.5863 80.2906 59.6212 79.5802 60.0637 79.6501C60.285 79.685 60.2733 80.6632 60.2733 80.6632C60.2733 80.8029 60.2617 81.8393 60.2617 82.0373C60.3083 81.6879 60.4829 80.209 60.8323 80.209C61.1234 80.209 61.1467 80.605 61.135 80.9194C61.135 81.1057 60.9487 82.7127 60.9371 82.899C61.0768 82.6545 61.2398 81.2338 61.3679 81.2338C61.9269 81.2338 61.7289 83.2484 61.5193 83.7724C61.496 83.8306 61.4844 83.9354 61.4494 84.0518C61.3796 84.4128 61.2631 85.0067 60.9604 85.554C60.611 86.1945 60.1219 87.2309 60.0404 87.3823C59.9822 87.7083 59.8192 88.8612 59.5979 90.3051C59.5048 90.9223 59.4116 91.6093 59.3068 92.308C59.2835 92.4594 59.1787 92.9485 58.7828 94.7651C58.2355 97.2571 58.1772 97.3619 58.154 97.4085C57.9211 97.8626 52.448 105.781 52.2151 106.119L52.0754 106.317L49.793 103.01Z" fill="#F7A491"/>
<path id="Vector_70" d="M59.2252 85.3443C59.2252 85.3443 58.8176 84.2264 58.084 84.2147C58.084 84.2147 58.4916 84.0517 58.8409 84.3545C59.1902 84.6572 59.2252 85.3443 59.2252 85.3443Z" fill="#F47458"/>
</g>
<g id="Group_23">
<path id="Vector_71" d="M48.5706 83.1786L47.9185 87.5803C47.9185 87.5803 50.3988 89.7113 51.8544 89.2572C53.0655 88.8845 52.2387 87.1844 52.2387 87.1844C52.2387 87.1844 51.5866 84.8321 51.7845 83.5978C51.9941 82.3634 48.5706 83.1786 48.5706 83.1786Z" fill="#F7A491"/>
<path id="Vector_72" d="M49.048 84.5063C49.6768 84.8207 50.8995 85.2516 51.866 85.3564C51.7729 84.7392 51.7263 84.0871 51.7962 83.6096C51.8893 83.039 51.2139 82.9109 50.457 82.9226C49.4672 83.0157 48.5822 83.1788 48.5822 83.1788L48.4541 84.0288C48.6404 84.2268 48.8384 84.4015 49.048 84.5063Z" fill="#FE875E"/>
<path id="Vector_73" d="M45.4381 78.0901C45.3333 78.0901 46.4163 83.0042 48.1048 83.8543C49.7817 84.7044 52.2853 84.2619 52.7627 82.9343C53.2868 81.4671 51.3886 76.4482 49.0247 75.8077C46.6492 75.1789 45.4381 78.0901 45.4381 78.0901Z" fill="#F7A491"/>
<path id="Vector_74" d="M47.3826 73.5717C46.0435 74.3985 45.4263 75.6212 45.2167 76.122C44.5878 76.4364 43.8193 77.1351 43.4583 78.9866C43.0042 81.269 44.6111 83.039 46.2996 83.563C47.9998 84.0987 48.2793 85.2864 48.2793 85.2864L48.4423 83.9939C48.4423 83.9939 48.0697 82.876 47.4991 82.3054C46.9285 81.7464 47.7669 80.9313 47.8368 80.2559C47.895 79.7435 47.534 78.742 47.6155 77.9036C47.6155 77.9036 48.5587 76.3781 49.4903 76.0055C51.0857 75.3767 49.106 72.5121 47.3826 73.5717Z" fill="#3C3C3C"/>
<path id="Vector_75" d="M48.093 81.1292C48.3143 81.6998 48.2211 82.2588 47.8951 82.3869C47.569 82.515 47.1149 82.154 46.9053 81.595C46.684 81.0244 46.7772 80.4655 47.1032 80.3374C47.4293 80.2093 47.8718 80.5703 48.093 81.1292Z" fill="#F7A491"/>
</g>
<path id="Vector_76" d="M54.3462 103.138L64.1279 101.438C64.1279 101.438 63.0099 98.4453 62.614 98.4453C62.2181 98.4453 55.2196 101.706 55.2196 101.706L54.6606 102.894L54.3462 103.138Z" fill="#F8A492"/>
<path id="Vector_77" d="M49.339 110.288C49.339 110.288 48.3609 115.319 48.7568 119.138C49.1527 122.958 49.1877 136.512 49.1877 136.512L47.6738 158.195L51.2721 158.276C51.2721 158.276 55.5341 136.605 55.4642 137.153C55.3827 137.712 56.8965 121.886 56.8965 121.886L51.8077 109.811L49.339 110.288Z" fill="#111B3E"/>
<path id="Vector_78" d="M50.2936 110.055C50.2936 110.055 49.6532 114.585 50.4567 116.576C51.2485 118.567 57.2689 138.061 57.3504 139.656C57.4319 141.251 59.4348 158.812 59.4348 158.812L63.6153 158.684L64.5236 139.144L62.6255 114.585L60.7856 108.378L50.2936 110.055Z" fill="#111B3E"/>
<path id="Vector_79" d="M47.9185 87.5806C47.9185 87.5806 48.9548 88.3025 49.9097 88.221C50.8762 88.1395 52.227 87.1846 52.227 87.1846L52.0407 86.4976C52.0407 86.4976 49.5487 86.1133 49.4905 86.1482C49.4323 86.1948 47.9185 87.5806 47.9185 87.5806Z" fill="#F7A491"/>
<path id="Vector_80" d="M58.9229 98.3054C58.9229 98.3054 62.6259 102.032 64.2911 101.391C65.9563 100.751 66.655 98.5849 62.5793 95.4058C58.9229 92.5529 58.9229 98.3054 58.9229 98.3054Z" fill="#F8A492"/>
<path id="Vector_81" d="M61.4264 102.893C60.8791 99.7027 56.8966 89.7813 56.5822 87.953C56.4308 87.068 54.2765 87.0447 52.2386 87.1612C50.0727 87.2893 47.93 87.5804 47.93 87.5804C47.93 87.5804 46.0203 87.9181 45.1702 88.7565C44.3318 89.595 44.1105 91.9239 45.31 96.349C46.2648 99.8308 47.4526 101.752 48.0348 104.291C48.1513 105.141 48.2561 105.979 48.3842 106.969C48.5938 110.765 48.3842 115.784 48.3842 115.784C48.3842 115.784 58.8063 118.078 62.6957 114.585C62.6957 114.585 61.9854 106.166 61.4264 102.893Z" fill="#FE5F6B"/>
<path id="Vector_82" d="M64.0814 96.0345C64.0814 96.0345 59.9941 99.6327 59.7612 99.6327C59.6098 99.6327 53.9271 95.1727 52.6229 91.5163C51.9009 89.4901 53.4147 87.231 55.1498 87.231C56.3492 87.231 56.8849 87.5687 59.2721 89.7113C61.6476 91.8656 64.0814 96.0345 64.0814 96.0345Z" fill="#EE3F4C"/>
</g>
<g id="Group_24">
<path id="Vector_83" d="M133.159 14.3463L124.297 20.3434C123.4 20.9489 122.178 20.716 121.572 19.8193L115.575 10.9576C114.969 10.061 115.202 8.83827 116.099 8.23274L124.961 2.23565C125.857 1.63012 127.08 1.86301 127.686 2.75967L133.683 11.6214C134.3 12.518 134.067 13.7407 133.159 14.3463Z" fill="#EE3F4C"/>
<path id="Vector_84" d="M128.71 8.06981C130.259 10.3638 129.665 13.4847 127.371 15.0334C125.077 16.5822 121.956 15.9883 120.408 13.6943C118.859 11.4002 119.453 8.27942 121.747 6.73065C124.041 5.17025 127.162 5.77578 128.71 8.06981Z" fill="white"/>
<path id="Vector_85" d="M122.911 8.81494L124.972 11.0624C125.124 11.2254 125.112 11.4816 124.949 11.633C124.786 11.7844 124.53 11.7727 124.378 11.6097C124.355 11.5864 124.332 11.5515 124.32 11.5282L122.911 8.81494Z" fill="#EE3F4C"/>
<path id="Vector_86" d="M124.472 11.0739L127.569 9.33887L124.868 11.6445C124.716 11.7726 124.507 11.7493 124.379 11.6096C124.25 11.4582 124.274 11.2486 124.414 11.1205C124.437 11.0972 124.448 11.0856 124.472 11.0739Z" fill="#EE3F4C"/>
</g>
<path id="Vector_87" d="M39.1731 73.1994H21.2284C17.9912 73.1994 15.3711 70.5793 15.3711 67.3421V63.6274C15.3711 60.3901 17.9912 57.77 21.2284 57.77H39.1731C42.4104 57.77 45.0305 60.3901 45.0305 63.6274V67.3421C45.0305 70.5793 42.3988 73.1994 39.1731 73.1994Z" fill="#EE3F4C"/>
<path id="Vector_88" d="M41.502 67.3768L48.8033 70.649L43.9241 63.8135L41.502 67.3768Z" fill="#EE3F4C"/>
<g id="Group_25">
<path id="Vector_89" d="M25.2459 64.9898C25.2459 65.6186 24.6753 66.131 23.965 66.131C23.2547 66.131 22.6841 65.6186 22.6841 64.9898C22.6841 64.361 23.2547 63.8486 23.965 63.8486C24.6753 63.8486 25.2459 64.361 25.2459 64.9898Z" fill="white"/>
<path id="Vector_90" d="M31.1966 64.9898C31.1966 65.6186 30.626 66.131 29.9157 66.131C29.2054 66.131 28.6348 65.6186 28.6348 64.9898C28.6348 64.361 29.2054 63.8486 29.9157 63.8486C30.626 63.8603 31.1966 64.361 31.1966 64.9898Z" fill="white"/>
<path id="Vector_91" d="M37.1468 64.9898C37.1468 65.6186 36.5762 66.131 35.8659 66.131C35.1556 66.131 34.585 65.6186 34.585 64.9898C34.585 64.361 35.1556 63.8486 35.8659 63.8486C36.5762 63.8603 37.1468 64.361 37.1468 64.9898Z" fill="white"/>
</g>
<g id="Group_26">
<path id="Vector_92" d="M106.072 12.8093L104.873 10.2358L105.863 9.77002L106.55 11.2256L108.215 10.2125L108.786 11.1674L106.072 12.8093Z" fill="#FE5F6B"/>
</g>
<g id="Group_27">
<path id="Vector_93" d="M37.9504 49.7114L35.2721 50.6663L34.9111 49.6299L36.425 49.0826L35.5749 47.3358L36.5763 46.8584L37.9504 49.7114Z" fill="#FE5F6B"/>
</g>
<g id="Group_28">
<path id="Vector_94" d="M158.055 14.6256C158.253 15.2544 158.451 15.8948 158.649 16.5237C158.801 17.0127 158.917 17.8162 159.406 18.1074C159.522 18.1772 159.72 18.1423 159.79 18.0026C160.035 17.4785 159.686 16.8031 159.522 16.2908C159.325 15.6619 159.115 15.0331 158.917 14.3927C158.731 13.8453 157.881 14.0782 158.055 14.6256Z" fill="white"/>
</g>
<g id="Group_29">
<path id="Vector_95" d="M164.739 13.9385C163.715 17.4319 163.703 17.3271 163.784 17.6881C163.843 17.9676 164.227 18.0491 164.413 17.8512C164.658 17.6066 164.588 17.6765 165.578 14.1714C165.729 13.6357 164.902 13.4028 164.739 13.9385Z" fill="white"/>
</g>
<g id="Group_30">
<path id="Vector_96" d="M168.652 21.7175C169.257 21.4264 169.863 21.1353 170.457 20.8441C170.992 20.588 171.691 20.3783 172.052 19.8893C172.215 19.6797 171.994 19.3885 171.761 19.3885C171.167 19.3652 170.527 19.831 170.014 20.0756C169.409 20.3667 168.815 20.6578 168.209 20.9489C167.709 21.2051 168.151 21.962 168.652 21.7175Z" fill="white"/>
</g>
<g id="Group_31">
<path id="Vector_97" d="M166.672 32.221C167.29 33.0245 167.907 33.8396 168.617 34.5616C168.99 34.9575 169.537 34.3753 169.211 33.9677C168.559 33.1875 167.895 32.4306 167.266 31.6271C166.929 31.2195 166.358 31.8018 166.672 32.221Z" fill="white"/>
</g>
<g id="Group_32">
<path id="Vector_98" d="M168.955 28.1455C169.514 28.3901 170.084 28.623 170.643 28.8442C171.167 29.0422 171.773 29.4148 172.343 29.3333C172.646 29.2867 172.681 28.8908 172.506 28.7045C172.297 28.4716 172.18 28.4949 170.946 28.0174C170.387 27.8078 169.84 27.5749 169.281 27.3653C168.827 27.1906 168.5 27.9476 168.955 28.1455Z" fill="white"/>
</g>
</g>
</g>
<defs>
<clipPath id="clip0_198_1045">
<rect width="200" height="164.064" fill="white"/>
</clipPath>
</defs>
</svg>
