<svg width="24" height="24" viewBox="0 0 24 24" fill="none" xmlns="http://www.w3.org/2000/svg">
<g clip-path="url(#clip0_210_3085)">
<path d="M12.6118 0C13.0807 0.145341 13.4463 0.436023 13.7886 0.778277C16.9205 3.91014 20.0523 7.042 23.1842 10.1739C23.3202 10.3098 23.4608 10.4552 23.5733 10.6099C24.0891 11.3131 24.1031 12.0961 23.7937 12.8556C23.4749 13.6433 22.8279 14.0746 21.9652 14.1496C21.4589 14.1918 21.4542 14.1871 21.4542 14.6982C21.4542 16.8173 21.4542 18.9412 21.4542 21.0604C21.4542 21.5433 21.412 22.0309 21.1822 22.4669C20.69 23.3999 19.9211 23.9156 18.8568 23.925C17.6003 23.9344 16.3438 23.9297 15.092 23.925C14.5669 23.925 14.2903 23.6484 14.2903 23.1139C14.2903 21.3135 14.2762 19.5132 14.295 17.7081C14.3043 16.9955 13.812 16.386 13.0197 16.4235C12.3211 16.4563 11.6179 16.4282 10.9146 16.4329C10.2067 16.4376 9.73312 16.9158 9.73312 17.6284C9.73312 19.4382 9.73312 21.2479 9.73312 23.0576C9.73312 23.6671 9.47526 23.925 8.87045 23.925C7.63271 23.925 6.39028 23.925 5.15254 23.925C3.80228 23.9203 2.68643 22.8795 2.59267 21.5339C2.53172 20.6994 2.56922 19.8648 2.56453 19.0303C2.55516 17.5159 2.55985 16.0063 2.56453 14.4919C2.56453 14.2762 2.52234 14.1825 2.27385 14.1637C1.05486 14.0887 0.257834 13.4464 0.0468554 12.3587C-0.112551 11.5382 0.150001 10.8443 0.740741 10.2536C2.27385 8.72983 3.79759 7.20141 5.32601 5.67298C6.95289 4.0461 8.57977 2.42391 10.202 0.792342C10.5489 0.445399 10.924 0.150029 11.3975 0C11.8007 0 12.2086 0 12.6118 0ZM4.01794 17.3846C4.01794 18.6411 4.01794 19.8976 4.01794 21.1494C4.01794 22.0215 4.4821 22.4856 5.36352 22.4903C6.23088 22.495 7.09354 22.481 7.9609 22.495C8.20939 22.4997 8.26096 22.4106 8.25627 22.1856C8.24689 21.1635 8.24689 20.1414 8.25627 19.1194C8.26096 18.5052 8.22345 17.8863 8.28909 17.2721C8.42505 15.9922 9.53152 14.9748 10.8161 14.9607C11.6038 14.9514 12.3915 14.956 13.1791 14.9607C13.5167 14.9607 13.8449 15.0311 14.1543 15.1717C15.2326 15.6687 15.739 16.536 15.7484 17.7035C15.7624 19.2084 15.753 20.7134 15.7484 22.2184C15.7484 22.4153 15.7952 22.495 16.0062 22.495C16.9017 22.4856 17.8019 22.495 18.6974 22.4903C18.9552 22.4903 19.2084 22.4481 19.4335 22.3028C19.832 22.0449 19.9867 21.6699 19.9867 21.2057C19.9867 18.6318 19.9867 16.0578 19.9867 13.4839C19.9867 13.001 20.2727 12.715 20.7556 12.7103C21.0603 12.7056 21.3651 12.7103 21.6698 12.7103C22.0355 12.7103 22.3403 12.5884 22.4762 12.2274C22.6075 11.8851 22.5231 11.5804 22.2512 11.3131C19.0396 8.10627 15.8281 4.89002 12.6118 1.67376C12.2227 1.28463 11.7913 1.28463 11.4022 1.67376C8.18126 4.89471 4.96032 8.11565 1.73937 11.3319C1.4862 11.5851 1.37837 11.8758 1.51902 12.2227C1.65967 12.5696 1.94566 12.7056 2.30198 12.7103C2.59735 12.715 2.89272 12.7103 3.19278 12.7103C3.7507 12.7103 4.02263 12.9822 4.02263 13.5448C4.01794 14.8248 4.01794 16.1047 4.01794 17.3846Z" fill="#111B3E"/>
</g>
<defs>
<clipPath id="clip0_210_3085">
<rect width="24" height="23.9297" fill="white"/>
</clipPath>
</defs>
</svg>
