<svg width="24" height="17" viewBox="0 0 24 17" fill="none" xmlns="http://www.w3.org/2000/svg">
<g id="Frame" clip-path="url(#clip0_64_73)">
<g id="Group">
<path id="Vector" d="M0 3.06445C0.09375 3.06445 0.158203 3.12891 0.228516 3.17578C2.77734 4.85156 5.32617 6.5332 7.875 8.20898C8.14453 8.38477 8.14453 8.39062 7.86914 8.56641C5.32617 10.1777 2.77734 11.7832 0.234375 13.3945C0.164062 13.4414 0.0820312 13.4766 0.0117188 13.5176C0 10.0312 0 6.54492 0 3.06445Z" fill="white"/>
<path id="Vector_2" d="M24 13.5176C23.4258 13.2012 22.8867 12.832 22.3301 12.4805C20.2559 11.1738 18.1875 9.86133 16.1191 8.55469C15.8613 8.39062 15.8613 8.39063 16.1133 8.2207C18.6738 6.5332 21.2344 4.8457 23.7949 3.1582C23.8594 3.11719 23.918 3.05859 24 3.05859C24 6.54492 24 10.0312 24 13.5176Z" fill="white"/>
<path id="Vector_3" d="M12.0059 0C15.498 0 18.9902 0 22.4824 0C23.1445 0 23.6719 0.375 23.9063 0.984375C23.9883 1.19531 23.959 1.33008 23.7539 1.46484C20.9121 3.32812 18.0762 5.19727 15.2402 7.06641C14.291 7.69336 13.3301 8.30859 12.3926 8.95898C12.0996 9.16406 11.9004 9.14062 11.6133 8.95312C9.06446 7.26562 6.50977 5.58398 3.96094 3.9082C2.72461 3.08789 1.48828 2.26758 0.240238 1.46484C0.0410189 1.33594 0.011722 1.20703 0.0878939 1.00195C0.316409 0.386719 0.849613 0 1.50586 0C5.00391 0 8.50782 0 12.0059 0Z" fill="white"/>
<path id="Vector_4" d="M11.9824 16.5293C8.49026 16.5293 4.99807 16.5293 1.50588 16.5293C0.849633 16.5293 0.31643 16.1426 0.0937741 15.5273C0.0234616 15.3281 0.0468991 15.2051 0.246118 15.0879C2.47854 13.6816 4.71096 12.2695 6.94338 10.8574C7.68166 10.3887 8.42581 9.93163 9.15823 9.45116C9.38674 9.30467 9.55081 9.28709 9.77932 9.45116C10.3242 9.83788 10.9043 10.1836 11.4551 10.5703C11.8301 10.834 12.1758 10.8398 12.5567 10.5762C13.1133 10.1894 13.6992 9.83788 14.2559 9.4453C14.4668 9.29881 14.6192 9.29881 14.836 9.43358C16.8692 10.7344 18.9141 12.0176 20.9531 13.3125C21.8906 13.9043 22.8223 14.5078 23.7656 15.0879C23.9707 15.2168 23.9942 15.3457 23.918 15.5508C23.6836 16.1601 23.1563 16.5351 22.4942 16.5351C18.9785 16.5351 15.4805 16.5293 11.9824 16.5293Z" fill="white"/>
</g>
</g>
<defs>
<clipPath id="clip0_64_73">
<rect width="24" height="16.5293" fill="white"/>
</clipPath>
</defs>
</svg>
