<svg width="200" height="175" viewBox="0 0 200 175" fill="none" xmlns="http://www.w3.org/2000/svg">
<g id="Frame" clip-path="url(#clip0_208_1967)">
<g id="Group">
<path id="Vector" d="M186.274 138.848H25.7353C18.1372 138.848 12.0098 132.72 12.0098 125.122V24.0194C12.0098 16.4214 18.1372 10.2939 25.7353 10.2939H186.274C193.873 10.2939 200 16.4214 200 24.0194V125.122C200 132.72 193.873 138.848 186.274 138.848Z" fill="#111B3E"/>
<g id="Group_2">
<path id="Vector_2" d="M7.59788 8.82337C7.35278 8.82337 6.98513 8.70082 6.74003 8.45572L4.53415 6.24984C4.04395 5.75964 4.04395 5.02435 4.53415 4.53415C5.02435 4.04395 5.75964 4.04395 6.24984 4.53415L8.45572 6.74003C8.94592 7.23023 8.94592 7.96552 8.45572 8.45572C8.21062 8.70082 7.96552 8.82337 7.59788 8.82337Z" fill="#111B3E"/>
<path id="Vector_3" d="M4.28922 16.5442H1.22549C0.490196 16.5442 0 16.054 0 15.3188C0 14.5835 0.490196 14.0933 1.22549 14.0933H4.28922C5.02451 14.0933 5.51471 14.5835 5.51471 15.3188C5.51471 16.054 5.02451 16.5442 4.28922 16.5442Z" fill="#111B3E"/>
<path id="Vector_4" d="M15.4413 5.51471C14.8285 5.51471 14.2158 5.02451 14.2158 4.41176L13.9707 1.34804C13.9707 0.612745 14.4609 0.122549 15.0736 0C15.8089 0 16.2991 0.490196 16.4217 1.10294L16.6668 4.16667C16.6668 4.90196 16.1766 5.51471 15.4413 5.51471Z" fill="#111B3E"/>
</g>
<path id="Vector_5" d="M119.73 125.735L168.995 175V125.735H119.73Z" fill="#111B3E"/>
<g id="Group_3">
<path id="Vector_6" d="M133.211 104.044L130.882 93.6277C130.27 90.9316 130.27 88.113 130.882 85.2943L134.191 70.4659C137.132 57.2306 130.392 43.9953 118.873 38.2355C118.995 37.9904 119.118 37.7453 119.118 37.3777C119.976 33.5787 117.647 29.9022 113.848 29.0443C110.049 28.1865 106.373 30.5149 105.515 34.314C105.392 34.5591 105.392 34.9267 105.392 35.1718C92.2795 35.5394 80.6374 44.7306 77.5736 57.8434L74.2648 72.6718C73.6521 75.3679 72.4266 77.9414 70.7109 80.1473L64.0932 88.6032C61.2746 92.1571 63.1129 97.4267 67.6472 98.5296L125.858 111.52C130.27 112.5 134.314 108.579 133.211 104.044Z" fill="#EE3F4C"/>
<path id="Vector_7" d="M89.3383 107.353C87.3775 106.863 85.6618 108.579 86.0295 110.539C86.6422 114.461 89.706 117.77 93.7501 118.628C97.9168 119.608 101.961 117.77 104.167 114.584C105.27 112.99 104.412 110.785 102.574 110.294L89.3383 107.353Z" fill="#EE3F4C"/>
</g>
<g id="Group_4">
<path id="Vector_8" d="M44.6078 86.6422C43.9951 86.6422 43.3823 86.3971 43.1372 85.7844C37.2549 77.0834 35.1715 66.5442 37.2549 56.2501C39.3382 45.9559 45.2206 37.1324 53.9215 31.3726C54.7794 30.7599 55.8823 31.005 56.4951 31.8628C57.1078 32.7206 56.8627 33.8236 56.0049 34.4363C48.0392 39.7059 42.647 47.7942 40.8088 57.1079C38.9706 66.4216 40.8088 75.9804 46.0784 83.8236C46.6911 84.6814 46.446 85.7844 45.5882 86.3971C45.3431 86.5197 44.9755 86.6422 44.6078 86.6422Z" fill="white"/>
<path id="Vector_9" d="M52.3284 81.4953C51.7157 81.4953 51.1029 81.2502 50.8578 80.6374C46.4461 74.0198 44.8529 66.0541 46.4461 58.211C48.0392 50.3678 52.5735 43.6276 59.1912 39.2159C60.049 38.6031 61.152 38.8482 61.7647 39.7061C62.3774 40.5639 62.1323 41.6668 61.2745 42.2796C55.3921 46.2012 51.4706 52.0835 50.1225 58.9463C48.7745 65.809 50.1225 72.7943 54.0441 78.6766C54.6569 79.5345 54.4118 80.6374 53.5539 81.2502C53.0637 81.3727 52.6961 81.4953 52.3284 81.4953Z" fill="white"/>
<path id="Vector_10" d="M60.1716 76.2258C59.5588 76.2258 58.9461 75.9807 58.701 75.3679C55.6372 70.8336 54.5343 65.3189 55.6372 59.9268C56.7402 54.5346 59.8039 49.8777 64.3382 46.814C65.1961 46.2013 66.299 46.4464 66.9117 47.3042C67.5245 48.162 67.2794 49.265 66.4216 49.8777C62.6225 52.3287 60.1716 56.2503 59.1912 60.662C58.3333 65.0738 59.1912 69.6081 61.7647 73.4071C62.3774 74.265 62.1323 75.3679 61.2745 75.9807C60.9068 76.1032 60.5392 76.2258 60.1716 76.2258Z" fill="white"/>
</g>
<g id="Group_5">
<path id="Vector_11" d="M150.613 112.5C150 112.5 149.265 112.132 149.02 111.52C148.53 110.662 148.897 109.559 149.755 109.069C158.211 104.657 164.461 97.3039 167.402 88.2353C170.343 79.1667 169.486 69.4853 165.074 61.0294C164.584 60.1716 164.951 59.0686 165.809 58.5784C166.667 58.0882 167.77 58.4559 168.26 59.3137C173.039 68.6275 174.02 79.2892 170.834 89.3383C167.647 99.3873 160.785 107.476 151.471 112.377C151.103 112.5 150.858 112.5 150.613 112.5Z" fill="white"/>
<path id="Vector_12" d="M146.323 104.167C145.711 104.167 144.975 103.799 144.73 103.186C144.24 102.328 144.608 101.225 145.466 100.735C151.716 97.5489 156.25 92.0342 158.456 85.4165C160.539 78.6763 160.049 71.5685 156.74 65.441C156.25 64.5832 156.618 63.4803 157.475 62.9901C158.333 62.4999 159.436 62.8675 159.926 63.7254C163.603 70.8332 164.338 78.9214 161.887 86.5195C159.436 94.1175 154.167 100.368 147.059 104.044C146.814 104.167 146.569 104.167 146.323 104.167Z" fill="white"/>
<path id="Vector_13" d="M142.034 95.8335C141.422 95.8335 140.686 95.4659 140.441 94.8531C139.951 93.9953 140.319 92.8924 141.177 92.4022C145.221 90.3188 148.162 86.7649 149.51 82.4757C150.858 78.1865 150.49 73.6522 148.407 69.608C147.917 68.7502 148.284 67.6473 149.142 67.1571C150 66.6669 151.103 67.0345 151.593 67.8924C156.74 77.9414 152.819 90.4414 142.77 95.5884C142.525 95.8335 142.279 95.8335 142.034 95.8335Z" fill="white"/>
</g>
</g>
</g>
<defs>
<clipPath id="clip0_208_1967">
<rect width="200" height="175" fill="white"/>
</clipPath>
</defs>
</svg>
