<svg width="21" height="25" viewBox="0 0 21 25" fill="none" xmlns="http://www.w3.org/2000/svg">
<path d="M10.5742 0.0410156C11.207 0.140625 11.8339 0.275391 12.4082 0.580078C14.2597 1.56445 15.414 3.05273 15.6543 5.17383C15.9589 7.88672 14.371 10.4121 11.8105 11.3145C9.27339 12.2051 6.41988 11.2148 4.97847 8.94141C3.63667 6.82617 3.78316 4.125 5.36519 2.17969C6.32613 1.00195 7.55074 0.263672 9.08003 0.0703125C9.10933 0.0644531 9.13863 0.0527344 9.16792 0.0410156C9.63667 0.0410156 10.1054 0.0410156 10.5742 0.0410156ZM5.54683 5.83594C5.51753 8.30859 7.67964 10.2129 9.97066 10.1719C12.1972 10.1367 14.2832 8.16211 14.2363 5.73633C14.1953 3.5625 12.3613 1.45312 9.87105 1.4707C7.37496 1.48828 5.49996 3.55664 5.54683 5.83594Z" fill="#111B3E"/>
<path d="M10.0468 24.0586C8.01362 24.0586 5.98628 24.0762 3.95307 24.0527C2.83393 24.041 1.84956 23.6367 1.05854 22.8164C0.390573 22.1191 0.0624478 21.2695 0.0155728 20.3203C-0.0547397 18.7207 0.103463 17.1387 0.572213 15.5977C0.88862 14.5723 1.35151 13.6172 2.12495 12.8555C3.00971 11.9883 4.08784 11.6191 5.31245 11.6133C5.51167 11.6133 5.69917 11.6836 5.86323 11.7891C6.30268 12.0586 6.73628 12.3398 7.17573 12.6035C8.16596 13.1953 9.23237 13.5176 10.3867 13.4297C11.3124 13.3594 12.1679 13.0547 12.9589 12.5625C13.2285 12.3926 13.5097 12.2344 13.7617 12.041C14.33 11.6074 14.9453 11.5547 15.6249 11.6836C17.1249 11.9648 18.1738 12.8262 18.8886 14.1445C19.5214 15.3164 19.8027 16.5938 19.9609 17.9004C20.0546 18.6738 20.0722 19.4531 20.0546 20.2324C20.0195 22.0664 18.7304 23.6074 16.9199 23.959C16.58 24.0234 16.2402 24.0586 15.9003 24.0586C13.9492 24.0527 11.998 24.0586 10.0468 24.0586ZM10.0234 22.6172C11.5761 22.6172 13.1289 22.6172 14.6874 22.6172C15.2265 22.6172 15.7656 22.6348 16.2988 22.5703C17.2656 22.4531 18.0156 22.0195 18.4081 21.0879C18.5839 20.666 18.6484 20.209 18.6132 19.7578C18.5664 19.1074 18.5839 18.4512 18.4843 17.8008C18.3203 16.7871 18.121 15.791 17.6289 14.877C17.1718 14.0215 16.539 13.3828 15.5546 13.1543C15.1445 13.0605 14.7753 13.0605 14.4355 13.3477C14.2421 13.5117 14.0078 13.6348 13.791 13.7695C11.7402 15.0352 9.60151 15.2754 7.35151 14.332C6.68354 14.0508 6.0976 13.6289 5.48823 13.2539C5.35932 13.1719 5.23042 13.0781 5.06049 13.084C4.31635 13.1309 3.6601 13.377 3.13276 13.9219C2.68745 14.3848 2.37104 14.9297 2.14839 15.5273C1.56831 17.0742 1.42768 18.6797 1.49214 20.3145C1.53315 21.293 2.1601 22.1016 3.08589 22.4238C3.52534 22.5762 3.98823 22.6113 4.44526 22.6113C6.30854 22.623 8.16596 22.6172 10.0234 22.6172Z" fill="#111B3E"/>
</svg>
