<svg width="24" height="24" viewBox="0 0 24 24" fill="none" xmlns="http://www.w3.org/2000/svg">
<path d="M15.6155 0C15.9902 0 16.365 0 16.7397 0C16.7514 0.00585509 16.769 0.0117102 16.7865 0.0175653C19.3452 0.515248 20.5455 3.17931 19.2164 5.39839C19.1169 5.56233 19.1403 5.60917 19.3335 5.60917C20.2118 5.60332 21.0959 5.60332 21.9741 5.60917C22.4543 5.60917 22.87 5.78483 23.2388 6.08344C23.6428 6.39961 23.8595 6.83289 24 7.313C24 8.06245 24 8.81191 24 9.56136C23.8302 10.1996 23.4906 10.7207 22.8817 11.0193C22.6592 11.1305 22.6065 11.2593 22.6065 11.4877C22.6123 14.948 22.6123 18.4025 22.6123 21.8629C22.6123 23.0749 21.6931 24.0059 20.4811 24.0059C14.8309 24.0059 9.18078 24.0059 3.53062 24.0059C3.38424 24.0059 3.23786 24 3.09149 23.9649C2.05514 23.7131 1.41108 22.8992 1.40522 21.8278C1.40522 18.3674 1.40522 14.9129 1.41108 11.4525C1.41108 11.2418 1.35253 11.1247 1.15345 11.0193C0.415712 10.6211 0.0117112 10.0005 0.00585616 9.1515C1.07219e-06 8.66553 1.07219e-06 8.18541 0.00585616 7.69944C0.0117112 6.53428 0.94267 5.60917 2.11369 5.60332C2.96267 5.59746 3.81752 5.60332 4.6665 5.60332C4.73677 5.60332 4.82459 5.63259 4.86558 5.56819C4.91827 5.48622 4.83045 5.42767 4.78946 5.36326C4.09856 4.16882 4.06343 2.96267 4.73091 1.75653C5.28714 0.761161 6.17126 0.204928 7.28373 0C7.65845 0 8.03318 0 8.40791 0C8.77092 0.0878263 9.13394 0.175653 9.46768 0.35716C10.1703 0.749451 10.6328 1.35253 11.0017 2.04928C11.353 2.70505 11.6282 3.39009 11.9034 4.081C11.9268 4.13955 11.9268 4.24494 12.0146 4.24494C12.0966 4.24494 12.1025 4.1454 12.1259 4.081C12.3952 3.40766 12.6704 2.74018 13.0041 2.09027C13.5604 1.00122 14.3567 0.210783 15.6155 0ZM9.18078 16.9212C9.18078 15.1354 9.18078 13.3496 9.18078 11.5579C9.18078 11.2652 9.17492 11.2593 8.87631 11.2593C6.97341 11.2593 5.07051 11.2593 3.16175 11.2593C2.85143 11.2593 2.84557 11.2652 2.84557 11.5697C2.84557 14.9246 2.84557 18.2796 2.84557 21.6345C2.84557 22.302 3.1032 22.5538 3.77068 22.5538C5.4628 22.5538 7.15492 22.5538 8.85289 22.5538C9.18078 22.5538 9.18078 22.5538 9.18078 22.2318C9.18078 20.4635 9.18078 18.6953 9.18078 16.9212ZM14.8368 16.8978C14.8368 18.6719 14.8368 20.4401 14.8368 22.2142C14.8368 22.5596 14.8368 22.5596 15.1705 22.5596C16.8744 22.5596 18.5723 22.5596 20.2762 22.5596C20.9085 22.5596 21.1779 22.2962 21.1779 21.6638C21.1779 18.303 21.1779 14.9363 21.1779 11.5755C21.1779 11.271 21.172 11.2652 20.8617 11.2652C18.9646 11.2652 17.0676 11.2652 15.1705 11.2652C14.8426 11.2652 14.8426 11.2652 14.8426 11.5931C14.8368 13.3555 14.8368 15.1295 14.8368 16.8978ZM13.3964 14.8017C13.3964 12.3191 13.3964 9.83655 13.3964 7.35984C13.3964 7.05538 13.3906 7.04952 13.0803 7.04952C12.3542 7.04952 11.6282 7.05538 10.9022 7.04367C10.6855 7.03781 10.6153 7.11393 10.6211 7.32471C10.627 12.3132 10.627 17.2959 10.6211 22.2845C10.6211 22.5011 10.6972 22.5714 10.908 22.5655C11.6282 22.5538 12.3425 22.5596 13.0627 22.5596C13.4023 22.5596 13.4023 22.5597 13.4023 22.2201C13.3964 19.7492 13.3964 17.2725 13.3964 14.8017ZM5.58575 9.81898C6.69237 9.81898 7.79898 9.81313 8.91144 9.82484C9.11052 9.82484 9.18663 9.76043 9.18663 9.5555C9.17492 8.80605 9.18078 8.0566 9.18663 7.30715C9.18663 7.11979 9.12808 7.04367 8.93486 7.04367C6.70993 7.04952 4.485 7.04367 2.26592 7.04952C1.73311 7.04952 1.45792 7.33057 1.45206 7.86338C1.44621 8.21469 1.45206 8.56599 1.45206 8.9173C1.45206 9.56136 1.71554 9.81898 2.36546 9.82484C3.43694 9.81898 4.51427 9.81898 5.58575 9.81898ZM18.4318 9.81898C19.5326 9.81898 20.6333 9.81898 21.7341 9.81898C22.3079 9.81898 22.5772 9.53794 22.5831 8.96414C22.5889 8.61283 22.5831 8.26153 22.5831 7.91022C22.5772 7.31886 22.3079 7.04367 21.7224 7.04367C19.5209 7.04367 17.3193 7.04367 15.1237 7.03781C14.9071 7.03781 14.8368 7.10808 14.8426 7.31886C14.8544 8.05074 14.8544 8.78849 14.8426 9.52037C14.8368 9.74286 14.9071 9.81898 15.1354 9.81898C16.2303 9.81313 17.3311 9.81898 18.4318 9.81898ZM9.17492 5.60332C9.61405 5.60332 9.94779 5.60332 10.2815 5.60332C10.9197 5.60332 10.9256 5.60332 10.6797 5.00024C10.3108 4.09271 9.98292 3.16175 9.45011 2.32447C8.9173 1.49305 8.15614 1.31739 7.29544 1.50476C6.45231 1.68626 5.79068 2.48256 5.72042 3.37839C5.6443 4.4323 6.48744 5.4628 7.54135 5.56233C8.12686 5.62088 8.70066 5.5799 9.17492 5.60332ZM14.7314 5.60332C14.9656 5.60332 15.1998 5.60332 15.434 5.60332C15.8556 5.60917 16.2771 5.62674 16.6929 5.5272C17.6707 5.29885 18.3908 4.37375 18.2796 3.29641C18.1918 2.43572 17.577 1.68626 16.6811 1.4989C15.8322 1.32325 15.0886 1.49305 14.544 2.3596C13.941 3.31983 13.5955 4.39131 13.1622 5.42767C13.1037 5.56819 13.1681 5.60332 13.3028 5.60332C13.7829 5.60332 14.2571 5.60332 14.7314 5.60332Z" fill="#111B3E"/>
</svg>
