<svg width="35" height="36" viewBox="0 0 35 36" fill="none" xmlns="http://www.w3.org/2000/svg">
<path d="M0.034965 24.5454C0.506993 24.1782 0.961539 23.7936 1.60839 24.1258C2.23776 24.4579 2.36014 25.0174 2.36014 25.6642C2.34266 27.7272 2.37762 29.7901 2.34266 31.853C2.34266 32.4999 2.55245 32.7272 3.1993 32.7097C5.26224 32.6747 7.32517 32.7097 9.38811 32.6922C10.035 32.6922 10.6119 32.7971 10.9266 33.444C11.2587 34.0908 10.8741 34.5454 10.507 35.0174C7.2028 35.0174 3.8986 34.9999 0.576923 35.0349C0.0874126 35.0349 0 34.93 0 34.4579C0.0524476 31.1537 0.034965 27.8495 0.034965 24.5454Z" fill="white"/>
<path d="M24.5105 35.035C24.1433 34.5629 23.7587 34.1084 24.0909 33.4615C24.4231 32.8322 24.9825 32.7098 25.6294 32.7098C27.6923 32.7273 29.7552 32.6923 31.8182 32.7273C32.465 32.7273 32.6923 32.5175 32.6748 31.8706C32.6398 29.8077 32.6748 27.7447 32.6573 25.6818C32.6573 25.035 32.7622 24.458 33.4091 24.1434C34.0559 23.8112 34.5105 24.1958 34.9825 24.5629C34.9825 27.8846 34.965 31.2063 35 34.528C35 34.965 34.8951 35.0699 34.458 35.0699C31.1538 35.0175 27.8322 35.035 24.5105 35.035Z" fill="white"/>
<path d="M0.0349426 0.594406C0.419558 0.122378 0.909068 0 1.50347 0C4.1783 0.0174825 6.87061 0 9.54543 0.0174825C10.5245 0.0174825 11.0839 0.454545 11.0664 1.18881C11.0489 1.88811 10.437 2.37762 9.52795 2.3951C7.55243 2.41259 5.55942 2.3951 3.58389 2.3951C2.36012 2.3951 2.36012 2.3951 2.36012 3.65385C2.36012 5.57692 2.36012 7.5 2.36012 9.42308C2.36012 10.0699 2.25522 10.6469 1.60837 10.979C0.961516 11.3112 0.506971 10.9266 0.0349426 10.5594C0.0349426 7.23776 0.0349426 3.91608 0.0349426 0.594406Z" fill="white"/>
<path d="M35 10.5595C34.528 10.9091 34.0734 11.3112 33.4266 10.9791C32.7972 10.6469 32.6748 10.0875 32.6748 9.44062C32.6923 7.37768 32.6574 5.31474 32.6923 3.25181C32.6923 2.60495 32.4825 2.37768 31.8357 2.39516C29.8252 2.43013 27.8322 2.41265 25.8217 2.39516C25.5245 2.39516 25.2273 2.41265 24.965 2.34272C24.3357 2.16789 23.9161 1.74831 24.0035 1.08397C24.0734 0.437122 24.4755 0.035024 25.1748 0.035024C26.5385 0.035024 27.9021 0.035024 29.2657 0.035024C30.6818 0.035024 32.1154 0.0525065 33.5315 0.0175415C34.1259 5.89732e-05 34.6154 0.139919 35 0.611947C35 3.91614 35 7.23782 35 10.5595Z" fill="white"/>
<path d="M17.5175 26.346C15.0699 26.346 12.6224 26.346 10.1748 26.346C8.514 26.346 7.34267 25.2271 7.34267 23.5663C7.32519 20.4544 7.32519 17.3425 7.34267 14.2132C7.36015 12.6397 8.49652 11.4684 10.0874 11.381C10.2098 11.381 10.3147 11.3635 10.4371 11.381C11.6958 11.5558 12.6574 11.346 13.0595 9.86001C13.2692 9.05582 14.0734 8.72365 14.9476 8.74113C16.6084 8.75861 18.2692 8.74113 19.9301 8.74113C21.1713 8.74113 21.8182 9.14323 22.2203 10.3495C22.4825 11.1537 22.9196 11.4859 23.7413 11.381C24.1783 11.3285 24.6154 11.346 25.0525 11.381C26.5385 11.5034 27.6748 12.6397 27.6923 14.1257C27.7273 17.3076 27.7273 20.4719 27.6923 23.6537C27.6748 25.2097 26.486 26.3285 24.9301 26.3285C22.465 26.3635 19.9825 26.346 17.5175 26.346ZM17.4825 23.4614C20.1049 23.4614 22.0629 21.5209 22.0629 18.916C22.0629 16.346 20.035 14.2831 17.5 14.3006C15 14.3181 12.9196 16.416 12.9021 18.9509C12.9021 21.416 14.9476 23.4439 17.4825 23.4614Z" fill="white"/>
<path d="M17.5 21.9756C15.7867 21.9756 14.3357 20.577 14.3532 18.8987C14.3532 17.1854 15.8392 15.7169 17.5525 15.7518C19.2483 15.7693 20.6818 17.2378 20.6469 18.9162C20.6294 20.6295 19.2308 21.9756 17.5 21.9756Z" fill="white"/>
</svg>
