<svg width="24" height="25" viewBox="0 0 24 25" fill="none" xmlns="http://www.w3.org/2000/svg">
<path d="M10.5614 20.9576C5.33723 20.9489 0.947514 17.2024 0.130419 12.1347C-0.721447 6.83227 2.59909 1.74716 7.8059 0.356355C13.7342 -1.22568 19.8276 2.69464 20.8099 8.762C21.314 11.8565 20.5491 14.6381 18.5846 17.0894C18.4108 17.3067 18.4455 17.4197 18.6281 17.6023C20.3057 19.2712 21.9834 20.9489 23.6523 22.6265C23.8783 22.8525 24.0783 23.0959 23.974 23.461C23.8262 23.9739 23.2699 24.1738 22.8352 23.8609C22.7309 23.7826 22.644 23.687 22.5484 23.5914C20.9055 21.9485 19.2539 20.3056 17.6197 18.6541C17.4024 18.4368 17.272 18.4368 17.0373 18.6367C15.4205 19.9493 13.569 20.7142 11.4828 20.9141C11.1438 20.9315 10.8135 20.9663 10.5614 20.9576ZM10.4745 19.4799C15.4205 19.4799 19.4712 15.4465 19.4799 10.5179C19.4886 5.66747 15.6726 1.48638 10.4919 1.47769C5.46761 1.47769 1.47776 5.44147 1.47776 10.4918C1.48645 15.6378 5.63277 19.4712 10.4745 19.4799Z" fill="#111B3E"/>
</svg>
