<svg xmlns="http://www.w3.org/2000/svg" width="8" height="7" fill="none" viewBox="0 0 8 7">
  <g clip-path="url(#a)">
    <path fill="#989898" d="M7.28 1.46H.72A.723.723 0 0 1 0 .738V.72C0 .324.324 0 .72 0h6.56c.396 0 .72.324.72.72v.02c0 .396-.324.72-.72.72ZM5.964 4.108H2.042a.723.723 0 0 1-.72-.72v-.019c0-.396.324-.72.72-.72h3.922c.396 0 .72.324.72.72v.018a.722.722 0 0 1-.72.721ZM4.637 6.775H3.363a.723.723 0 0 1-.72-.721v-.018c0-.396.324-.72.72-.72h1.274c.396 0 .72.324.72.72v.018c0 .396-.324.72-.72.72Z"/>
  </g>
  <defs>
    <clipPath id="a">
      <path fill="#fff" d="M0 0h8v6.775H0z"/>
    </clipPath>
  </defs>
</svg>
