<svg width="100" height="97" viewBox="0 0 100 97" fill="none" xmlns="http://www.w3.org/2000/svg">
<g clip-path="url(#clip0_254_3573)">
<path d="M49.8846 96.2241C35.3472 96.2241 20.7888 96.2241 6.25131 96.2241C3.06272 96.2241 0.713237 94.3781 0.104888 91.4412C0 90.9587 0 90.4762 0 89.9728C0 83.7844 0 77.596 0 71.4076C0 67.7366 2.45437 65.2822 6.08349 65.2612C14.1598 65.2612 22.2362 65.2822 30.3126 65.2402C31.2146 65.2402 31.6551 65.5339 32.0747 66.3311C34.2773 70.5056 37.6547 72.8551 42.4795 72.8551C47.4722 72.8551 52.4858 72.8551 57.4785 72.8551C62.3663 72.8551 65.7437 70.4636 67.9463 66.2472C68.3239 65.5339 68.7225 65.2402 69.5406 65.2402C77.7638 65.2612 85.966 65.2402 94.1892 65.2612C97.3778 65.2612 99.9371 67.7995 99.958 70.9671C99.979 77.4282 99.979 83.9103 99.958 90.3713C99.9371 93.7068 97.3149 96.1821 93.8116 96.1821C86.0499 96.2031 78.2882 96.1821 70.5265 96.1821C63.6669 96.2241 56.7653 96.2241 49.8846 96.2241ZM88.3365 88.1897C90.3713 88.1897 92.0495 86.5744 92.0705 84.5815C92.0915 82.5677 90.3713 80.8895 88.2945 80.9105C86.2387 80.9314 84.6444 82.5257 84.6444 84.5815C84.6654 86.6164 86.2807 88.1897 88.3365 88.1897ZM73.0019 88.1897C75.0367 88.1897 76.6939 86.5954 76.7359 84.5815C76.7778 82.5677 75.0577 80.8895 72.9809 80.8895C70.9041 80.8895 69.3518 82.4628 69.3518 84.5396C69.3518 86.6164 70.9251 88.1897 73.0019 88.1897Z" fill="#111B3E"/>
<path d="M61.5901 48.8567C61.5901 52.9053 61.5901 56.975 61.5901 61.0236C61.5901 63.8766 60.1217 65.4289 57.2478 65.5338C55.8213 65.5967 54.3738 65.5548 52.9474 65.5548C49.6539 65.5548 46.3814 65.5548 43.0879 65.5548C41.6824 65.5548 40.3818 65.3031 39.3749 64.1703C38.6407 63.3312 38.368 62.3872 38.368 61.2754C38.3889 52.9263 38.368 44.5563 38.368 36.2072C38.368 34.7807 38.368 34.7807 36.9205 34.7807C32.4103 34.7807 27.9002 34.7807 23.39 34.7807C21.3552 34.7807 20.2014 34.0255 19.4462 32.2634C18.712 30.5433 19.2155 29.1797 20.4741 27.9001C29.3686 19.0685 38.2001 10.216 47.0527 1.38447C48.8567 -0.419603 51.0804 -0.461558 52.8844 1.34251C61.7789 10.195 70.6524 19.0895 79.5049 27.963C80.9524 29.4105 81.2041 30.6272 80.4699 32.3264C79.7357 34.0255 78.477 34.8227 76.61 34.8017C71.995 34.7598 67.3799 34.8017 62.7649 34.7807C61.8628 34.7807 61.5482 35.0325 61.5691 35.9555C61.6321 40.2559 61.5901 44.5563 61.5901 48.8567Z" fill="#111B3E"/>
</g>
<defs>
<clipPath id="clip0_254_3573">
<rect width="100" height="96.224" fill="white"/>
</clipPath>
</defs>
</svg>
