<svg width="24" height="25" viewBox="0 0 24 25" fill="none" xmlns="http://www.w3.org/2000/svg">
<g id="Group">
<path id="Vector" d="M15.6193 0C15.9941 0 16.369 0 16.7438 0C16.7672 0.00585652 16.7848 0.0175695 16.8082 0.0234261C19.3089 0.445095 20.5857 3.28551 19.1918 5.41142C19.1567 5.45827 19.0922 5.51098 19.1332 5.5754C19.1684 5.63397 19.2504 5.60469 19.3089 5.60469C20.1991 5.60469 21.0893 5.60469 21.9736 5.61054C22.4539 5.61054 22.8697 5.78624 23.2387 6.08492C23.6428 6.40117 23.8594 6.83455 24 7.31479C24 8.08199 24 8.84334 24 9.61054C23.9824 9.66325 23.959 9.7101 23.9414 9.76281C23.7013 10.6764 22.7936 11.3382 21.7745 11.3206C19.5549 11.2914 17.3411 11.3089 15.1215 11.3089C14.7936 11.3089 14.7936 11.3089 14.7936 10.9868C14.7936 9.35286 14.7936 7.72474 14.7936 6.09078C14.7936 5.54026 14.7291 5.60469 15.2796 5.60469C15.7482 5.59883 16.2167 5.63397 16.6794 5.52855C17.6515 5.306 18.3895 4.38067 18.2723 3.27965C18.1845 2.44802 17.5637 1.68668 16.6794 1.49927C15.8302 1.31772 15.0922 1.49341 14.5534 2.33675C13.9385 3.29722 13.5988 4.38653 13.1537 5.42313C13.1303 5.47584 13.101 5.58126 13.1772 5.58126C13.5344 5.59297 13.4231 5.85652 13.4231 6.03807C13.429 11.877 13.429 17.716 13.429 23.5549C13.429 23.631 13.4231 23.713 13.429 23.7892C13.4407 23.9356 13.3763 24 13.224 24C12.41 23.9941 11.6018 23.9941 10.7877 24C10.6354 24 10.571 23.9414 10.5827 23.7892C10.5886 23.7189 10.5827 23.6486 10.5827 23.5783C10.5827 17.7218 10.5827 11.8653 10.5827 6.01464C10.5827 5.92094 10.5827 5.82723 10.5886 5.73353C10.5886 5.67496 10.6003 5.61054 10.6706 5.61054C10.981 5.61054 10.858 5.43485 10.7994 5.28843C10.694 5.01318 10.5827 4.73792 10.4714 4.46266C10.1728 3.73646 9.8858 2.99854 9.45827 2.33089C8.91947 1.48755 8.1347 1.306 7.26208 1.51098C6.43045 1.71596 5.80381 2.50073 5.73939 3.34993C5.65739 4.45095 6.48316 5.46413 7.56662 5.56955C8.01757 5.6164 8.46852 5.60469 8.92533 5.59883C9.16545 5.59297 9.22987 5.66911 9.22987 5.90337C9.22401 7.60761 9.21816 9.306 9.22987 11.0102C9.22987 11.2504 9.15373 11.3148 8.91947 11.3089C6.64715 11.3031 4.37482 11.3089 2.10249 11.3031C0.937043 11.3031 0.011713 10.3719 0 9.20644C0 8.70278 0 8.20498 0 7.70717C0.00585652 6.54173 0.937043 5.6164 2.10249 5.61054C2.9634 5.60469 3.81845 5.61054 4.67936 5.60469C4.74963 5.60469 4.85505 5.65154 4.89019 5.56369C4.91947 5.49927 4.84334 5.4407 4.8082 5.38214C4.07613 4.16398 4.05857 2.9224 4.7672 1.69839C5.32357 0.732064 6.19619 0.199122 7.28551 0C7.66032 0 8.03514 0 8.40996 0C9.65154 0.193265 10.4305 0.966325 10.9927 2.02635C11.3441 2.68814 11.631 3.37921 11.9122 4.07613C11.9356 4.1347 11.9356 4.24012 12.0234 4.24012C12.1054 4.24012 12.1113 4.14056 12.1347 4.07613C12.4158 3.37921 12.7028 2.68814 13.0542 2.02635C13.5988 0.966325 14.3836 0.193265 15.6193 0Z" fill="#F55562"/>
<path id="Vector_2" d="M9.21827 18.3427C9.21827 20.1231 9.21827 21.9035 9.21827 23.6838C9.21827 24.0059 9.21827 24.0059 8.89616 24.0059C7.10992 24.0059 5.31783 24.0118 3.53159 24.0059C2.33687 24.0059 1.41154 23.0806 1.40568 21.88C1.39982 18.9225 1.40568 15.9649 1.40568 13.0016C1.40568 12.6794 1.40568 12.6794 1.72779 12.6794C4.11725 12.6794 6.5067 12.6794 8.89616 12.6794C9.21827 12.6794 9.21827 12.6794 9.21827 13.0016C9.21827 14.7819 9.21827 16.5623 9.21827 18.3427Z" fill="#F55562"/>
<path id="Vector_3" d="M14.8052 18.3368C14.8052 16.5623 14.8052 14.7936 14.8052 13.0191C14.8052 12.6794 14.8052 12.6794 15.1331 12.6794C17.5226 12.6794 19.9121 12.6794 22.3015 12.6794C22.6178 12.6794 22.6178 12.6794 22.6178 12.9898C22.6178 15.9591 22.6178 18.9225 22.6178 21.8917C22.6178 23.0396 21.6632 24.0001 20.5153 24.0059C18.7056 24.0118 16.8901 24.0059 15.0804 24.0118C14.8637 24.0118 14.7993 23.9415 14.7993 23.7307C14.811 21.9327 14.8052 20.1348 14.8052 18.3368Z" fill="#F55562"/>
</g>
</svg>
